<svg xmlns="http://www.w3.org/2000/svg" width="64" height="64" fill="none"><path fill="#EA4C89" d="M49.095 0H14.907a4.107 4.107 0 0 0-4.102 4.103v55.794A4.107 4.107 0 0 0 14.907 64h34.188a4.107 4.107 0 0 0 4.103-4.103V4.103A4.107 4.107 0 0 0 49.095 0ZM38.83 2.735l-.399 1.728a1.405 1.405 0 0 1-1.375 1.094h-9.688c-.662 0-1.227-.45-1.376-1.094l-.399-1.728H38.83Zm11.633 57.162a1.37 1.37 0 0 1-1.368 1.368H14.907a1.37 1.37 0 0 1-1.367-1.368V4.103a1.37 1.37 0 0 1 1.367-1.368h7.88l.54 2.343a4.128 4.128 0 0 0 4.04 3.214h9.689a4.127 4.127 0 0 0 4.04-3.214l.541-2.343h7.458a1.37 1.37 0 0 1 1.368 1.368v55.794Z"/><path fill="#EA4C89" d="M32.002 35.41c6.312 0 11.61-5.247 11.61-11.579 0-6.384-5.208-11.578-11.61-11.578-6.402 0-11.867 5.2-11.61 11.578.407 10.114 9.088 11.579 11.61 11.579Zm-4.638-4.042c1.139-1.582 2.865-1.955 4.638-1.955 1.771 0 3.5.375 4.637 1.955a8.844 8.844 0 0 1-4.637 1.307 8.843 8.843 0 0 1-4.638-1.307Zm1.667-7.635c0-1.623 1.333-2.944 2.97-2.944 1.64 0 2.972 1.32 2.972 2.944 0 1.96-1.629 2.924-3.31 2.877-1.359-.037-2.632-1.572-2.632-2.877Zm2.97-8.745c4.895 0 8.876 3.967 8.876 8.843a8.784 8.784 0 0 1-2.149 5.76 7.534 7.534 0 0 0-2.47-2.08 5.641 5.641 0 0 0 1.45-3.778c0-3.131-2.56-5.68-5.706-5.68-3.147 0-5.706 2.549-5.706 5.68 0 1.45.55 2.775 1.451 3.78a7.528 7.528 0 0 0-2.471 2.078 8.784 8.784 0 0 1-2.15-5.76c0-4.876 3.982-8.843 8.876-8.843ZM44.292 40.82H19.71c-.755 0-1.367.613-1.367 1.368v8.168c0 .756.612 1.368 1.367 1.368h24.583c.756 0 1.368-.612 1.368-1.368v-8.168c0-.755-.612-1.368-1.368-1.368Zm-1.367 8.169H21.077v-5.434h21.848v5.434Z"/></svg>